<?xml version="1.0" encoding="UTF-8"?>
<svg id="Livello_2" data-name="Livello 2" xmlns="http://www.w3.org/2000/svg" xmlns:xlink="http://www.w3.org/1999/xlink" viewBox="0 0 210.06 190.41">
  <defs>
    <style>
      .cls-1 {
        fill: #fff;
      }

      .cls-2 {
        clip-path: url(#clippath-1);
      }
    </style>
    <clipPath id="clippath-1">
      <path class="cls-1" d="M104.17,189.99c-2.95.28-5.94.42-8.96.42C42.63,190.41,0,147.78,0,95.21S42.63,0,95.21,0C98.23,0,101.22.14,104.17.42,55.79,4.93,17.92,45.65,17.92,95.21c0,49.55,37.87,90.28,86.25,94.79Z"/>
    </clipPath>
  </defs>
  <g id="Livello_1-2" data-name="Livello 1">
    <g>
      <path class="cls-1" d="M105.89,189.99c2.95.28,5.94.42,8.96.42,52.58,0,95.21-42.63,95.21-95.21C210.06,42.62,167.43,0,114.85,0c-3.03,0-6.02.14-8.96.42,48.38,4.51,86.25,45.22,86.25,94.79,0,49.55-37.87,90.28-86.25,94.79Z"/>
      <g>
        <path class="cls-1" d="M104.17,189.99c-2.95.28-5.94.42-8.96.42C42.63,190.41,0,147.78,0,95.21S42.63,0,95.21,0C98.23,0,101.22.14,104.17.42,55.79,4.93,17.92,45.65,17.92,95.21c0,49.55,37.87,90.28,86.25,94.79Z"/>
        <g class="cls-2">
          <rect class="cls-1" y="92.91" width="104.17" height=".3"/>
        </g>
      </g>
    </g>
  </g>
</svg>